# xmcd
#
# Track frame offsets:
#	150
#	27958
#	53160
#	70374
#	90038
#	109757
#	125033
#	141547
#	157495
#	177882
#	190816
#	211618
#	229166
#	250835
#	269265
#	288118
#	302943
#	321008
#
# Disc length: 4638
#
# Revision: 1
# Processed by: cddbd v1.5.1PL0 Copyright (c) Steve Scherf et al.
# Submitted via: ExactAudioCopy v0.95a5
# Normalized: r0:DSWAP,TDELIM( - )
#
DISCID=06121c12
DTITLE=Various Artist - PopMix 1
DYEAR=2000
DGENRE=A Cappella
TTITLE0=Manic Street Preachers - The Everlasting
TTITLE1=Richard Ashcroft - Song For The Lovers
TTITLE2=Radiohead - No Surprises
TTITLE3=Robbie Williams - Let Me Entertain You
TTITLE4=Madonna - Beautiful Stranger
TTITLE5=Bananafishbones - Come To Sin
TTITLE6=The Cardigans - Erase And Rewind
TTITLE7=Bryan Adams - Summer Of 69
TTITLE8=Coldplay - Yellow
TTITLE9=Robbie Williams - It´S Only Us
TTITLE10=Sting - Shape Of My Heart
TTITLE11=Liquido - Narcotic
TTITLE12=Vangelis - Conquest Of Paradise
TTITLE13=Natalie Imbruglia - Torn
TTITLE14=Nomandsland - 7 Seconds
TTITLE15=The Cardigans - Lovefool
TTITLE16=Sixpence None The Richer - Kiss Me
TTITLE17=The Verve - Bitter Sweet Symphony
EXTD=
EXTT0=
EXTT1=
EXTT2=
EXTT3=
EXTT4=
EXTT5=
EXTT6=
EXTT7=
EXTT8=
EXTT9=
EXTT10=
EXTT11=
EXTT12=
EXTT13=
EXTT14=
EXTT15=
EXTT16=
EXTT17=
PLAYORDER=
